<svg data-logo="logo" xmlns="http://www.w3.org/2000/svg" viewBox="0 0 273 43">
        <g style="opacity: 1;" id="logogram" transform="translate(0, 1) rotate(0)"><path d="M0.452637 20.81C0.452637 9.76427 9.40694 0.809967 20.4526 0.809967H46.7026C57.7484 0.809967 66.7026 9.76427 66.7026 20.81V40.81H20.4526C9.40694 40.81 0.452637 31.8557 0.452637 20.81Z" fill="#4845D2"></path><path d="M46.7026 8.30997H20.4526C13.5491 8.30997 7.95264 13.9064 7.95264 20.81C7.95264 27.7135 13.5491 33.31 20.4526 33.31H46.7026C53.6062 33.31 59.2026 27.7135 59.2026 20.81C59.2026 13.9064 53.6062 8.30997 46.7026 8.30997Z" fill="#A5B4FC"></path><path d="M20.4526 27.06C23.9044 27.06 26.7026 24.2617 26.7026 20.81C26.7026 17.3582 23.9044 14.56 20.4526 14.56C17.0009 14.56 14.2026 17.3582 14.2026 20.81C14.2026 24.2617 17.0009 27.06 20.4526 27.06Z" fill="black"></path><path d="M17.9526 19.56C18.643 19.56 19.2026 19.0003 19.2026 18.31C19.2026 17.6196 18.643 17.06 17.9526 17.06C17.2623 17.06 16.7026 17.6196 16.7026 18.31C16.7026 19.0003 17.2623 19.56 17.9526 19.56Z" fill="white"></path><path d="M47.9526 27.06C51.4044 27.06 54.2026 24.2617 54.2026 20.81C54.2026 17.3582 51.4044 14.56 47.9526 14.56C44.5009 14.56 41.7026 17.3582 41.7026 20.81C41.7026 24.2617 44.5009 27.06 47.9526 27.06Z" fill="black"></path><path d="M45.4526 19.56C46.143 19.56 46.7026 19.0003 46.7026 18.31C46.7026 17.6196 46.143 17.06 45.4526 17.06C44.7623 17.06 44.2026 17.6196 44.2026 18.31C44.2026 19.0003 44.7623 19.56 45.4526 19.56Z" fill="white"></path></g>
        <g style="opacity: 1;" id="logotype" transform="translate(73, 1.5)"><path fill="#" d="M8.59 33L8.59 8.92L29.42 8.92L29.42 14.69L16.33 14.69L16.33 18.02L27.53 18.02L27.53 23.55L16.33 23.55L16.33 27.23L29.66 27.23L29.66 33L8.59 33ZM42.72 33L42.72 8.92L50.45 8.92L50.45 26.84L62.81 26.84L62.81 33L42.72 33ZM73.73 14.10Q78.80 14.10 81.48 16.48Q84.16 18.86 84.16 23.76L84.16 23.76L84.16 24.95L70.30 24.95Q70.30 26.95 71.19 27.96Q72.08 28.98 74.01 28.98L74.01 28.98Q75.76 28.98 76.58 28.24Q77.40 27.50 77.40 26.28L77.40 26.28L84.16 26.28Q84.16 29.64 81.60 31.53Q79.05 33.42 74.15 33.42L74.15 33.42Q69.00 33.42 66.17 31.02Q63.33 28.63 63.33 23.76L63.33 23.76Q63.33 19 66.10 16.55Q68.86 14.10 73.73 14.10L73.73 14.10ZM74.01 18.54Q70.72 18.54 70.33 21.66L70.33 21.66L77.12 21.66Q77.12 20.23 76.30 19.38Q75.48 18.54 74.01 18.54L74.01 18.54ZM95.25 14.10Q99.49 14.10 102.15 15.52Q104.81 16.93 104.81 20.12L104.81 20.12L104.81 27.33Q104.81 27.93 105.09 28.31Q105.37 28.70 105.93 28.70L105.93 28.70L107.19 28.70L107.19 32.72Q107.08 32.79 106.64 32.95Q106.21 33.10 105.40 33.26Q104.60 33.42 103.55 33.42L103.55 33.42Q101.52 33.42 100.20 32.81Q98.89 32.20 98.40 31.11L98.40 31.11Q97.07 32.16 95.43 32.79Q93.78 33.42 91.58 33.42L91.58 33.42Q85.07 33.42 85.07 28.24L85.07 28.24Q85.07 25.54 86.52 24.13Q87.97 22.71 90.70 22.18Q93.43 21.66 97.84 21.66L97.84 21.66L97.84 20.75Q97.84 19.66 97.09 19.10Q96.34 18.54 95.15 18.54L95.15 18.54Q94.06 18.54 93.27 18.93Q92.49 19.31 92.49 20.16L92.49 20.16L92.49 20.29L85.63 20.29Q85.59 20.12 85.59 19.80L85.59 19.80Q85.59 17.18 88.09 15.64Q90.60 14.10 95.25 14.10L95.25 14.10ZM97.84 24.95Q94.87 24.95 93.45 25.60Q92.03 26.24 92.03 27.33L92.03 27.33Q92.03 29.08 94.41 29.08L94.41 29.08Q95.78 29.08 96.81 28.34Q97.84 27.61 97.84 26.52L97.84 26.52L97.84 24.95ZM119.30 14.06Q120.10 14.06 120.73 14.26Q121.36 14.45 121.36 14.48L121.36 14.48L121.36 20.33L119.12 20.33Q116.95 20.33 115.99 21.45Q115.03 22.57 115.03 24.77L115.03 24.77L115.03 33L108.06 33L108.06 14.52L113.77 14.52L114.22 17.32Q114.85 15.71 116.22 14.89Q117.58 14.06 119.30 14.06L119.30 14.06ZM136.69 14.10Q139.91 14.10 141.52 15.88Q143.13 17.67 143.13 21.03L143.13 21.03L143.13 33L136.17 33L136.17 21.87Q136.17 20.68 135.55 19.96Q134.94 19.24 133.82 19.24L133.82 19.24Q132.53 19.24 131.72 20.09Q130.92 20.92 130.92 22.15L130.92 22.15L130.92 33L123.95 33L123.95 14.52L129.66 14.52L130.11 17.32Q131.20 15.85 132.96 14.97Q134.73 14.10 136.69 14.10L136.69 14.10ZM153.11 12.35L146.14 12.35L146.14 7.62L153.11 7.62L153.11 12.35ZM153.11 33L146.14 33L146.14 14.52L153.11 14.52L153.11 33ZM168.89 14.10Q172.11 14.10 173.72 15.88Q175.33 17.67 175.33 21.03L175.33 21.03L175.33 33L168.37 33L168.37 21.87Q168.37 20.68 167.75 19.96Q167.14 19.24 166.02 19.24L166.02 19.24Q164.73 19.24 163.92 20.09Q163.12 20.92 163.12 22.15L163.12 22.15L163.12 33L156.15 33L156.15 14.52L161.86 14.52L162.31 17.32Q163.40 15.85 165.16 14.97Q166.93 14.10 168.89 14.10L168.89 14.10ZM198.88 11.05Q198.88 13.19 197.82 14.34Q196.75 15.50 194.62 16.06L194.62 16.06Q195.63 16.83 196.21 17.86Q196.78 18.89 196.78 20.05L196.78 20.05Q196.78 22.99 194.56 24.49Q192.34 26 189.02 26L189.02 26L186.36 26Q184.15 26 184.15 27.02L184.15 27.02Q184.15 27.50 184.64 27.80Q185.13 28.10 186.36 28.10L186.36 28.10L192.66 28.10Q195.74 28.10 197.31 29.71Q198.88 31.32 198.88 34.02L198.88 34.02Q198.88 36.01 197.84 37.45Q196.78 38.88 195 39.62Q193.22 40.35 191.12 40.35L191.12 40.35L180.83 40.35Q179.56 40.35 178.50 39.76Q177.43 39.16 176.80 38.13Q176.17 37.09 176.17 35.84L176.17 35.84Q176.17 34.47 177.01 33.37Q177.85 32.27 179.11 31.70L179.11 31.70Q178.27 31.11 177.78 30.27Q177.29 29.43 177.29 28.45L177.29 28.45Q177.29 27.09 178.31 25.98Q179.32 24.88 180.83 24.49L180.83 24.49Q179.46 23.62 178.66 22.48Q177.85 21.34 177.85 20.09L177.85 20.09Q177.85 16.86 180.46 15.48Q183.06 14.10 187.37 14.10L187.37 14.10Q189.26 14.10 190.42 14.31L190.42 14.31Q192.13 13.22 192.64 12.33Q193.15 11.44 193.15 11.05L193.15 11.05L198.88 11.05ZM187.30 17.74Q186.15 17.74 185.41 18.34Q184.68 18.93 184.68 20.05L184.68 20.05Q184.68 21.20 185.36 21.78Q186.04 22.36 187.30 22.36L187.30 22.36Q188.56 22.36 189.28 21.78Q190.00 21.20 190.00 20.05L190.00 20.05Q190.00 18.89 189.28 18.32Q188.56 17.74 187.30 17.74L187.30 17.74ZM184.61 33Q183.80 33 183.29 33.44Q182.78 33.88 182.78 34.68L182.78 34.68Q182.78 35.48 183.31 35.98Q183.84 36.47 184.61 36.47L184.61 36.47L190.06 36.47Q190.84 36.47 191.38 35.99Q191.92 35.52 191.92 34.72L191.92 34.72Q191.92 33.91 191.40 33.45Q190.87 33 190.06 33L190.06 33L184.61 33Z"></path></g>
        
      </svg>